{"title":"Even the Rain [Tambien la lluvia] [2010] BRRip XviD - CODY","uid":6461168,"size":740058052,"categoryP":"video","categoryS":"movies","magnet":"?xt=urn:btih:f3b591813a87199a88ac9b57c8fbf927e4a44645&amp;dn=Even+the+Rain+%5BTambien+la+lluvia%5D+%5B2010%5D+BRRip+XviD+-+CODY&amp;tr=udp%3A%2F%2Ftracker.openbittorrent.com%3A80&amp;tr=udp%3A%2F%2Fopen.demonii.com%3A1337&amp;tr=udp%3A%2F%2Ftracker.coppersurfer.tk%3A6969&amp;tr=udp%3A%2F%2Fexodus.desync.com%3A6969","seeders":1,"leechers":0,"uploader":"CODYBOSS1969","files":6,"time":1307784475,"description":"General\nComplete name                    : Even the Rain [Tambien la lluvia] [2010] BRRip XviD - CODY.avi\nFormat                           : AVI\nFormat/Info                      : Audio Video Interleave\nFile size                        : 706 MiB\nDuration                         : 1h 42mn\nOverall bit rate                 : 960 Kbps\nWriting application              : VirtualDubMod 1.5.10.2 (build 2540/release)\nWriting library                  : VirtualDubMod build 2540/release\n\nVideo\nID                               : 0\nFormat                           : MPEG-4 Visual\nFormat profile                   : Advanced Simple@L5\nFormat settings, BVOP            : 4\nFormat settings, QPel            : No\nFormat settings, GMC             : No warppoints\nFormat settings, Matrix          : Default (H.263)\nMuxing mode                      : Packed bitstream\nCodec ID                         : XVID\nCodec ID/Hint                    : XviD\nDuration                         : 1h 42mn\nBit rate                         : 823 Kbps\nWidth                            : 720 pixels\nHeight                           : 304 pixels\nDisplay aspect ratio             : 2.35:1\nFrame rate                       : 23.976 fps\nColor space                      : YUV\nChroma subsampling               : 4:2:0\nBit depth                        : 8 bits\nScan type                        : Progressive\nCompression mode                 : Lossy\nBits/(Pixel*Frame)               : 0.157\nStream size                      : 605 MiB (86%)\nWriting library                  : XviD 1.2.0.dev47 (UTC 2006-11-01)\n\nAudio\nID                               : 1\nFormat                           : MPEG Audio\nFormat version                   : Version 1\nFormat profile                   : Layer 3\nCodec ID                         : 55\nCodec ID/Hint                    : MP3\nDuration                         : 1h 42mn\nBit rate mode                    : Constant\nBit rate                         : 128 Kbps\nChannel(s)                       : 2 channels\nSampling rate                    : 48.0 KHz\nCompression mode                 : Lossy\nStream size                      : 94.0 MiB (13%)\nAlignment                        : Aligned on interleaves\nInterleave, duration             : 42 ms (1.00 video frame)\nInterleave, preload duration     : 504 ms\nWriting library                  : LAME3.97 \nEncoding settings                : -m s -V 4 -q 2 -lowpass 17 -b 128\n\n\n\n\nIMDB link:                       &lt;a href=&quot; http://www.imdb.com/title/tt1422032/&quot; rel=&quot;nofollow&quot; target=&quot;_NEW&quot;&gt; http://www.imdb.com/title/tt1422032/&lt;/a&gt;\n\n\n\n\nSubtitles included               : English, Romanian\n\n\n\n\nPlease seed at least 1,5:1. This way this torrent has a chance to survive !\n\n\n\n\nThanks. Enjoy!\n\t\t\n","torrent":{"xt":"urn:btih:f3b591813a87199a88ac9b57c8fbf927e4a44645","amp;dn":"Even+the+Rain+%5BTambien+la+lluvia%5D+%5B2010%5D+BRRip+XviD+-+CODY","amp;tr":["udp%3A%2F%2Ftracker.openbittorrent.com%3A80","udp%3A%2F%2Fopen.demonii.com%3A1337","udp%3A%2F%2Ftracker.coppersurfer.tk%3A6969","udp%3A%2F%2Fexodus.desync.com%3A6969"],"infoHash":"f3b591813a87199a88ac9b57c8fbf927e4a44645","infoHashBuffer":{"type":"Buffer","data":[243,181,145,129,58,135,25,154,136,172,155,87,200,251,249,39,228,164,70,69]},"announce":[],"urlList":[]}}